0
SECTION
2
HEADER
9
$INSUNITS
70
4
9
$ACADVER
1
AC1014
9
$HANDSEED
5
FFFF
0
ENDSEC
0
SECTION
2
TABLES
0
TABLE
2
VPORT
5
8
100
AcDbSymbolTable
0
ENDTAB
0
TABLE
2
LTYPE
5
5
100
AcDbSymbolTable
0
LTYPE
5
14
100
AcDbSymbolTableRecord
100
AcDbLinetypeTableRecord
2
BYBLOCK
70
0
0
LTYPE
5
15
100
AcDbSymbolTableRecord
100
AcDbLinetypeTableRecord
2
BYLAYER
70
0
0
ENDTAB
0
TABLE
2
LAYER
5
2
100
AcDbSymbolTable
70
2
0
LAYER
5
50
100
AcDbSymbolTableRecord
100
AcDbLayerTableRecord
2
0
70
0
6
CONTINUOUS
0
ENDTAB
0
TABLE
2
STYLE
5
3
100
AcDbSymbolTable
70
1
0
STYLE
5
11
100
AcDbSymbolTableRecord
100
AcDbTextStyleTableRecord
2
STANDARD
70
0
0
ENDTAB
0
TABLE
2
VIEW
5
6
100
AcDbSymbolTable
70
0
0
ENDTAB
0
TABLE
2
UCS
5
7
100
AcDbSymbolTable
70
0
0
ENDTAB
0
TABLE
2
APPID
5
9
100
AcDbSymbolTable
70
2
0
APPID
5
12
100
AcDbSymbolTableRecord
100
AcDbRegAppTableRecord
2
ACAD
70
0
0
ENDTAB
0
TABLE
2
DIMSTYLE
5
A
100
AcDbSymbolTable
70
1
0
ENDTAB
0
TABLE
2
BLOCK_RECORD
5
1
100
AcDbSymbolTable
70
1
0
BLOCK_RECORD
5
1F
100
AcDbSymbolTableRecord
100
AcDbBlockTableRecord
2
*MODEL_SPACE
0
BLOCK_RECORD
5
1B
100
AcDbSymbolTableRecord
100
AcDbBlockTableRecord
2
*PAPER_SPACE
0
ENDTAB
0
ENDSEC
0
SECTION
2
BLOCKS
0
BLOCK
5
20
100
AcDbEntity
100
AcDbBlockBegin
2
*MODEL_SPACE
0
ENDBLK
5
21
100
AcDbEntity
100
AcDbBlockEnd
0
BLOCK
5
1C
100
AcDbEntity
100
AcDbBlockBegin
2
*PAPER_SPACE
0
ENDBLK
5
1D
100
AcDbEntity
100
AcDbBlockEnd
0
ENDSEC
0
SECTION
2
ENTITIES
0
LINE
5
100
100
AcDbEntity
8
OUTER_PROFILES
100
AcDbLine
10
43.154866776461631
20
0
30
0
11
0
21
0
31
0
0
LWPOLYLINE
5
101
100
AcDbEntity
8
OUTER_PROFILES
100
AcDbPolyline
90
29
10
0
20
0
30
0
10
-0.86368896806786333
20
0.0055284214801618742
30
0
10
-1.7553794159639322
20
0.044227371841084953
30
0
10
-2.2119801943301187
20
0.086381585627094554
30
0
10
-2.6758873420324463
20
0.14926737996360234
30
0
10
-3.1472028588639454
20
0.23703107096070805
30
0
10
-3.6260287446176465
20
0.35381897472851148
30
0
10
-4.1105136511612983
20
0.50305384961712951
30
0
10
-4.584652123597583
20
0.68152259928491032
30
0
10
-5.0453090205788325
20
0.88827393122262066
30
0
10
-5.4930088909354318
20
1.123483095527795
30
0
10
-5.9282762834977651
20
1.3873253422979683
30
0
10
-6.3516357470962177
20
1.6799759216306738
30
0
10
-6.7636118305611772
20
2.0016100836234472
30
0
10
-7.1678977147369327
20
2.3562378036256555
30
0
10
-7.5660368572886858
20
2.7494517420922437
30
0
10
-7.9521826741094941
20
3.1807537447214678
30
0
10
-8.3204232186068854
20
3.649581612564321
30
0
10
-8.6648465441883964
20
4.1553731466717982
30
0
10
-8.9795407042615558
20
4.6975661480948903
30
0
10
-9.2505365041983048
20
5.2570806353449173
30
0
10
-9.4664297899122261
20
5.802208591939582
30
0
10
-9.633777473077366
20
6.3294582849780481
30
0
10
-9.7593400549584519
20
6.8357211177083235
30
0
10
-9.8498780368202272
20
7.3178884933784172
30
0
10
-9.9131283448102643
20
7.7818029310510202
30
0
10
-9.9555217125428559
20
8.2382939378409006
30
0
10
-9.9944402140678577
20
9.1310493239231167
30
0
10
-10
20
10
30
0
0
LWPOLYLINE
5
102
100
AcDbEntity
8
OUTER_PROFILES
100
AcDbPolyline
90
29
10
-10
20
10
30
0
10
-9.9944715785198337
20
10.863688968068072
30
0
10
-9.955772628158881
20
11.755379415964368
30
0
10
-9.9136184143728396
20
12.211980194330676
30
0
10
-9.8507326200362844
20
12.67588734203313
30
0
10
-9.7629689290391131
20
13.147202858864759
30
0
10
-9.6461810252712237
20
13.626028744618594
30
0
10
-9.4969461503825023
20
14.110513651162364
30
0
10
-9.3184774007146114
20
14.584652123598737
30
0
10
-9.1117260687767772
20
15.045309020580071
30
0
10
-8.8765169044714636
20
15.493008890936746
30
0
10
-8.6126746577011328
20
15.928276283499159
30
0
10
-8.3200240783682506
20
16.351635747097689
30
0
10
-7.998389916375281
20
16.76361183056272
30
0
10
-7.6437621963728439
20
17.167897714738551
30
0
10
-7.2505482579060665
20
17.5660368572903
30
0
10
-6.8192462552766955
20
17.95218267411104
30
0
10
-6.3504183874337432
20
18.320423218608305
30
0
10
-5.8446268533262202
20
18.664846544189643
30
0
10
-5.3024338519031389
20
18.979540704262597
30
0
10
-4.7429193646533045
20
19.250536504199083
30
0
10
-4.1977914080588583
20
19.466429789912777
30
0
10
-3.6705417150206099
20
19.633777473077739
30
0
10
-3.1642788822905477
20
19.759340054958695
30
0
10
-2.6821115066206556
20
19.849878036820371
30
0
10
-2.2181970689482107
20
19.91312834481035
30
0
10
-1.7617060621584779
20
19.955521712542897
30
0
10
-0.8689506760765614
20
19.994440214067861
30
0
10
4.4023958407113473e-17
20
20
30
0
0
LINE
5
103
100
AcDbEntity
8
OUTER_PROFILES
100
AcDbLine
10
4.4023958407113473e-17
20
20
30
0
11
43.154866776461631
21
20
31
0
0
LWPOLYLINE
5
104
100
AcDbEntity
8
OUTER_PROFILES
100
AcDbPolyline
90
29
10
43.154866776461631
20
20
30
0
10
44.018555744529607
20
19.994471578519864
30
0
10
44.910246192425745
20
19.955772628158929
30
0
10
45.366846970791968
20
19.913618414372905
30
0
10
45.830754118494319
20
19.850732620036382
30
0
10
46.30206963532585
20
19.762968929039253
30
0
10
46.780895521079572
20
19.646181025271424
30
0
10
47.265380427623256
20
19.496946150382776
30
0
10
47.739518900059551
20
19.318477400714965
30
0
10
48.200175797040821
20
19.111726068777216
30
0
10
48.647875667397429
20
18.876516904472005
30
0
10
49.083143059959781
20
18.612674657701795
30
0
10
49.50650252355824
20
18.320024078369048
30
0
10
49.918478607023204
20
17.99838991637623
30
0
10
50.322764491198946
20
17.643762196373988
30
0
10
50.720903633750666
20
17.250548257907393
30
0
10
51.107049450571395
20
16.819246255278205
30
0
10
51.475289995068692
20
16.350418387435433
30
0
10
51.819713320650102
20
15.84462685332808
30
0
10
52.134407480723155
20
15.302433851905164
30
0
10
52.405403280659826
20
14.742919364655311
30
0
10
52.621296566373715
20
14.19779140806078
30
0
10
52.788644249538862
20
13.670541715022395
30
0
10
52.914206831419961
20
13.164278882292129
30
0
10
53.004744813281768
20
12.682111506621968
30
0
10
53.067995121271842
20
12.218197068949266
30
0
10
53.11038848900445
20
11.761706062159288
30
0
10
53.149306990529453
20
10.868950676076921
30
0
10
53.154866776461596
20
10
30
0
0
LWPOLYLINE
5
105
100
AcDbEntity
8
OUTER_PROFILES
100
AcDbPolyline
90
29
10
53.154866776461596
20
10
30
0
10
53.149338354981495
20
9.1363110319320224
30
0
10
53.110639404620564
20
8.2446205840358751
30
0
10
53.068485190834537
20
7.7880198056696592
30
0
10
53.005599396498013
20
7.3241126579673033
30
0
10
52.917835705500885
20
6.8527971411357775
30
0
10
52.801047801733063
20
6.3739712553820507
30
0
10
52.651812926844414
20
5.8894863488383749
30
0
10
52.4733441771766
20
5.4153478764020759
30
0
10
52.266592845238847
20
4.9546909794208123
30
0
10
52.031383680933637
20
4.5069911090642032
30
0
10
51.767541434163427
20
4.07172371650186
30
0
10
51.474890854830676
20
3.6483642529033977
30
0
10
51.153256692837857
20
3.2363881694384307
30
0
10
50.798628972835608
20
2.8321022852626787
30
0
10
50.405415034369028
20
2.4339631427109696
30
0
10
49.97411303173984
20
2.0478173258902377
30
0
10
49.505285163897064
20
1.6795767813929408
30
0
10
48.999493629789718
20
1.335153455811537
30
0
10
48.457300628366795
20
1.020459295738483
30
0
10
47.897786141116953
20
0.74946349580180638
30
0
10
47.352658184522411
20
0.53357021008791627
30
0
10
46.825408491484026
20
0.36622252692277818
30
0
10
46.319145658753769
20
0.24065994504166757
30
0
10
45.836978283083603
20
0.15012196317986062
30
0
10
45.373063845410897
20
0.086871655189795144
30
0
10
44.916572838620908
20
0.044478287457187599
30
0
10
44.023817452538552
20
0.0055597859321744776
30
0
10
43.154866776461631
20
0
30
0
0
CIRCLE
5
106
100
AcDbEntity
8
INTERIOR_PROFILES
100
AcDbCircle
10
-43.154866776461631
20
10
30
0
40
3.9999999999999991
210
0
220
0
230
-1
0
CIRCLE
5
107
100
AcDbEntity
8
INTERIOR_PROFILES
100
AcDbCircle
10
0
20
10
30
0
40
4
210
0
220
0
230
-1
0
CIRCLE
5
108
100
AcDbEntity
8
INTERIOR_PROFILES
100
AcDbCircle
10
-20.000000000000004
20
10
30
0
40
4.0000000000000018
210
0
220
0
230
-1
0
LINE
5
109
100
AcDbEntity
8
BEND
100
AcDbLine
10
32.827433388230816
20
0
30
-9.5667367620351869e-16
11
32.827433388230816
21
20
31
-9.5667367620351869e-16
0
LINE
5
110
100
AcDbEntity
8
BEND_EXTENT
100
AcDbLine
10
35.654866776461631
20
20
30
-9.4344844018418153e-16
11
35.654866776461631
21
0
31
-9.4344844018418153e-16
0
LINE
5
111
100
AcDbEntity
8
BEND_EXTENT
100
AcDbLine
10
30.000000000000004
20
0
30
-9.6989891222285605e-16
11
30.000000000000004
21
20
31
-9.6989891222285605e-16
0
ENDSEC
0
SECTION
2
OBJECTS
0
DICTIONARY
5
C
100
AcDbDictionary
3
ACAD_GROUP
350
D
3
ACAD_MLINESTYLE
350
17
0
DICTIONARY
5
D
100
AcDbDictionary
0
DICTIONARY
5
1A
330
C
100
AcDbDictionary
0
DICTIONARY
5
17
100
AcDbDictionary
0
ENDSEC
0
EOF
